# xmcd
#
# Track frame offsets: 
#        150
#        26111
#        60683
#        80139
#        96908
#        128342
#        153981
#        180469
#        199450
#        217890
#        239706
#
# Disc length: 3526 seconds
#
# Revision: 0
# Processed by: cddbd v1.5.2PL0 Copyright (c) Steve Scherf et al.
# Submitted via: ExactAudioCopy v0.99pb4
#
DISCID=980dc40b
DTITLE=The Norman Sylvester Band - It Ain't Nothin' But A Party
DYEAR=1994
DGENRE=Blues
TTITLE0=Let's Rock
TTITLE1=We Got A Problem
TTITLE2=Do The Best You Can With What You Got
TTITLE3=Midnight Train to Portland
TTITLE4=Blues Picnic
TTITLE5=A Piece of the Action
TTITLE6=Turn A Spark Into A Flame
TTITLE7=How Long Will This Good Thing Last?
TTITLE8=The Boogie Cat
TTITLE9=The Thrill Is Gone And I Don't Want It Back
TTITLE10=You Rock My Soul
EXTD=
EXTT0=
EXTT1=
EXTT2=
EXTT3=
EXTT4=
EXTT5=
EXTT6=
EXTT7=
EXTT8=
EXTT9=
EXTT10=
PLAYORDER=
